%TF.GenerationSoftware,KiCad,Pcbnew,9.0.1*%
%TF.CreationDate,2025-04-30T11:51:16+02:00*%
%TF.ProjectId,otis34,6f746973-3334-42e6-9b69-6361645f7063,rev?*%
%TF.SameCoordinates,Original*%
%TF.FileFunction,Paste,Bot*%
%TF.FilePolarity,Positive*%
%FSLAX46Y46*%
G04 Gerber Fmt 4.6, Leading zero omitted, Abs format (unit mm)*
G04 Created by KiCad (PCBNEW 9.0.1) date 2025-04-30 11:51:16*
%MOMM*%
%LPD*%
G01*
G04 APERTURE LIST*
G04 Aperture macros list*
%AMRoundRect*
0 Rectangle with rounded corners*
0 $1 Rounding radius*
0 $2 $3 $4 $5 $6 $7 $8 $9 X,Y pos of 4 corners*
0 Add a 4 corners polygon primitive as box body*
4,1,4,$2,$3,$4,$5,$6,$7,$8,$9,$2,$3,0*
0 Add four circle primitives for the rounded corners*
1,1,$1+$1,$2,$3*
1,1,$1+$1,$4,$5*
1,1,$1+$1,$6,$7*
1,1,$1+$1,$8,$9*
0 Add four rect primitives between the rounded corners*
20,1,$1+$1,$2,$3,$4,$5,0*
20,1,$1+$1,$4,$5,$6,$7,0*
20,1,$1+$1,$6,$7,$8,$9,0*
20,1,$1+$1,$8,$9,$2,$3,0*%
G04 Aperture macros list end*
%ADD10RoundRect,0.250000X-1.025000X-1.000000X1.025000X-1.000000X1.025000X1.000000X-1.025000X1.000000X0*%
%ADD11RoundRect,0.225000X0.225000X0.375000X-0.225000X0.375000X-0.225000X-0.375000X0.225000X-0.375000X0*%
%ADD12RoundRect,0.225000X-0.225000X-0.375000X0.225000X-0.375000X0.225000X0.375000X-0.225000X0.375000X0*%
%ADD13RoundRect,0.225000X0.375000X-0.225000X0.375000X0.225000X-0.375000X0.225000X-0.375000X-0.225000X0*%
G04 APERTURE END LIST*
D10*
%TO.C,S20*%
X235500000Y-48250000D03*
X247500000Y-50450000D03*
%TD*%
%TO.C,S11*%
X46500000Y-48250000D03*
X58500000Y-50450000D03*
%TD*%
%TO.C,S23*%
X82500000Y-56750000D03*
X94500000Y-58950000D03*
%TD*%
%TO.C,S19*%
X217500000Y-39750000D03*
X229500000Y-41950000D03*
%TD*%
%TO.C,S28*%
X199500000Y-56750000D03*
X211500000Y-58950000D03*
%TD*%
%TO.C,S25*%
X118500000Y-56750000D03*
X130500000Y-58950000D03*
%TD*%
%TO.C,S32*%
X127500000Y-73750000D03*
X139500000Y-75950000D03*
%TD*%
%TO.C,S1*%
X46500000Y-31250000D03*
X58500000Y-33450000D03*
%TD*%
%TO.C,S12*%
X64500000Y-39750000D03*
X76500000Y-41950000D03*
%TD*%
%TO.C,S16*%
X163500000Y-39750000D03*
X175500000Y-41950000D03*
%TD*%
%TO.C,S2*%
X64500000Y-22750000D03*
X76500000Y-24950000D03*
%TD*%
%TO.C,S21*%
X46500000Y-65250000D03*
X58500000Y-67450000D03*
%TD*%
%TO.C,S22*%
X64500000Y-56750000D03*
X76500000Y-58950000D03*
%TD*%
%TO.C,S9*%
X217500000Y-22750000D03*
X229500000Y-24950000D03*
%TD*%
%TO.C,S34*%
X172500000Y-73750000D03*
X184500000Y-75950000D03*
%TD*%
%TO.C,S29*%
X217500000Y-56750000D03*
X229500000Y-58950000D03*
%TD*%
%TO.C,S6*%
X163500000Y-22750000D03*
X175500000Y-24950000D03*
%TD*%
%TO.C,S13*%
X82500000Y-39750000D03*
X94500000Y-41950000D03*
%TD*%
%TO.C,S30*%
X235500000Y-65250000D03*
X247500000Y-67450000D03*
%TD*%
%TO.C,S15*%
X118500000Y-39750000D03*
X130500000Y-41950000D03*
%TD*%
%TO.C,S14*%
X100500000Y-39750000D03*
X112500000Y-41950000D03*
%TD*%
%TO.C,S17*%
X181500000Y-39750000D03*
X193500000Y-41950000D03*
%TD*%
%TO.C,S31*%
X109500000Y-73750000D03*
X121500000Y-75950000D03*
%TD*%
%TO.C,S26*%
X163500000Y-56750000D03*
X175500000Y-58950000D03*
%TD*%
%TO.C,S7*%
X181500000Y-22750000D03*
X193500000Y-24950000D03*
%TD*%
%TO.C,S33*%
X154500000Y-73750000D03*
X166500000Y-75950000D03*
%TD*%
%TO.C,S24*%
X100500000Y-56750000D03*
X112500000Y-58950000D03*
%TD*%
%TO.C,S27*%
X181500000Y-56750000D03*
X193500000Y-58950000D03*
%TD*%
%TO.C,S18*%
X199500000Y-39750000D03*
X211500000Y-41950000D03*
%TD*%
%TO.C,S3*%
X82500000Y-22750000D03*
X94500000Y-24950000D03*
%TD*%
%TO.C,S4*%
X100500000Y-22750000D03*
X112500000Y-24950000D03*
%TD*%
%TO.C,S8*%
X199500000Y-22750000D03*
X211500000Y-24950000D03*
%TD*%
%TO.C,S5*%
X118500000Y-22750000D03*
X130500000Y-24950000D03*
%TD*%
%TO.C,S10*%
X235500000Y-31250000D03*
X247500000Y-33450000D03*
%TD*%
D11*
%TO.C,D3*%
X133812500Y-33531250D03*
X130512500Y-33531250D03*
%TD*%
D12*
%TO.C,D29*%
X146187500Y-70187500D03*
X149487500Y-70187500D03*
%TD*%
D11*
%TO.C,D1*%
X133812500Y-38843750D03*
X130512500Y-38843750D03*
%TD*%
%TO.C,D25*%
X142812500Y-62218750D03*
X139512500Y-62218750D03*
%TD*%
%TO.C,D11*%
X133812500Y-55843750D03*
X130512500Y-55843750D03*
%TD*%
D12*
%TO.C,D20*%
X155225000Y-55843750D03*
X158525000Y-55843750D03*
%TD*%
D11*
%TO.C,D23*%
X142812500Y-67531250D03*
X139512500Y-67531250D03*
%TD*%
D13*
%TO.C,D31*%
X121437500Y-83525000D03*
X121437500Y-80225000D03*
%TD*%
%TO.C,D32*%
X139437500Y-83525000D03*
X139437500Y-80225000D03*
%TD*%
D12*
%TO.C,D17*%
X155225000Y-47875000D03*
X158525000Y-47875000D03*
%TD*%
%TO.C,D8*%
X155300000Y-33531250D03*
X158600000Y-33531250D03*
%TD*%
D11*
%TO.C,D22*%
X142812500Y-70187500D03*
X139512500Y-70187500D03*
%TD*%
D13*
%TO.C,D34*%
X167000000Y-83525000D03*
X167000000Y-80225000D03*
%TD*%
D11*
%TO.C,D4*%
X133812500Y-30875000D03*
X130512500Y-30875000D03*
%TD*%
%TO.C,D2*%
X133812500Y-36187500D03*
X130512500Y-36187500D03*
%TD*%
%TO.C,D5*%
X133812500Y-28218750D03*
X130512500Y-28218750D03*
%TD*%
D12*
%TO.C,D10*%
X155300000Y-38843750D03*
X158600000Y-38843750D03*
%TD*%
D11*
%TO.C,D13*%
X133812500Y-50531250D03*
X130512500Y-50531250D03*
%TD*%
D13*
%TO.C,D33*%
X149562500Y-83525000D03*
X149562500Y-80225000D03*
%TD*%
D12*
%TO.C,D19*%
X155225000Y-53187500D03*
X158525000Y-53187500D03*
%TD*%
%TO.C,D7*%
X155300000Y-30875000D03*
X158600000Y-30875000D03*
%TD*%
%TO.C,D26*%
X146187500Y-62218750D03*
X149487500Y-62218750D03*
%TD*%
D11*
%TO.C,D12*%
X133812500Y-53187500D03*
X130512500Y-53187500D03*
%TD*%
%TO.C,D24*%
X142812500Y-64875000D03*
X139512500Y-64875000D03*
%TD*%
%TO.C,D14*%
X133812500Y-47875000D03*
X130512500Y-47875000D03*
%TD*%
%TO.C,D15*%
X133812500Y-45218750D03*
X130512500Y-45218750D03*
%TD*%
D12*
%TO.C,D30*%
X146187500Y-72843750D03*
X149487500Y-72843750D03*
%TD*%
%TO.C,D6*%
X155300000Y-28218750D03*
X158600000Y-28218750D03*
%TD*%
%TO.C,D18*%
X155225000Y-50531250D03*
X158525000Y-50531250D03*
%TD*%
%TO.C,D28*%
X146187500Y-67531250D03*
X149487500Y-67531250D03*
%TD*%
%TO.C,D27*%
X146187500Y-64875000D03*
X149487500Y-64875000D03*
%TD*%
%TO.C,D16*%
X155225000Y-45218750D03*
X158525000Y-45218750D03*
%TD*%
%TO.C,D9*%
X155300000Y-36187500D03*
X158600000Y-36187500D03*
%TD*%
D11*
%TO.C,D21*%
X142812500Y-72843750D03*
X139512500Y-72843750D03*
%TD*%
M02*
