M48
; DRILL file {KiCad 9.0.1} date 2025-04-30T11:23:36+0200
; FORMAT={-:-/ absolute / metric / decimal}
; #@! TF.CreationDate,2025-04-30T11:23:36+02:00
; #@! TF.GenerationSoftware,Kicad,Pcbnew,9.0.1
; #@! TF.FileFunction,NonPlated,1,2,NPTH
FMAT,2
METRIC
; #@! TA.AperFunction,NonPlated,NPTH,ComponentDrill
T1C1.600
; #@! TA.AperFunction,NonPlated,NPTH,ComponentDrill
T2C1.900
; #@! TA.AperFunction,NonPlated,NPTH,ComponentDrill
T3C2.200
; #@! TA.AperFunction,NonPlated,NPTH,ComponentDrill
T4C3.050
; #@! TA.AperFunction,NonPlated,NPTH,ComponentDrill
T5C5.050
%
G90
G05
T1
X45.0Y-42.4
X45.0Y-59.4
X45.0Y-76.4
X63.0Y-33.9
X63.0Y-50.9
X63.0Y-67.9
X81.0Y-33.9
X81.0Y-50.9
X81.0Y-67.9
X99.0Y-33.9
X99.0Y-50.9
X99.0Y-67.9
X108.0Y-84.9
X117.0Y-33.9
X117.0Y-50.9
X117.0Y-67.9
X126.0Y-84.9
X153.0Y-84.9
X162.0Y-33.9
X162.0Y-50.9
X162.0Y-67.9
X171.0Y-84.9
X180.0Y-33.9
X180.0Y-50.9
X180.0Y-67.9
X198.0Y-33.9
X198.0Y-50.9
X198.0Y-67.9
X216.0Y-33.9
X216.0Y-50.9
X216.0Y-67.9
X234.0Y-42.4
X234.0Y-59.4
X234.0Y-76.4
T2
X44.5Y-37.25
X44.5Y-54.25
X44.5Y-71.25
X55.5Y-37.25
X55.5Y-54.25
X55.5Y-71.25
X62.5Y-28.75
X62.5Y-45.75
X62.5Y-62.75
X73.5Y-28.75
X73.5Y-45.75
X73.5Y-62.75
X80.5Y-28.75
X80.5Y-45.75
X80.5Y-62.75
X91.5Y-28.75
X91.5Y-45.75
X91.5Y-62.75
X98.5Y-28.75
X98.5Y-45.75
X98.5Y-62.75
X107.5Y-79.75
X109.5Y-28.75
X109.5Y-45.75
X109.5Y-62.75
X116.5Y-28.75
X116.5Y-45.75
X116.5Y-62.75
X118.5Y-79.75
X125.5Y-79.75
X127.5Y-28.75
X127.5Y-45.75
X127.5Y-62.75
X136.5Y-79.75
X152.5Y-79.75
X161.5Y-28.75
X161.5Y-45.75
X161.5Y-62.75
X163.5Y-79.75
X170.5Y-79.75
X172.5Y-28.75
X172.5Y-45.75
X172.5Y-62.75
X179.5Y-28.75
X179.5Y-45.75
X179.5Y-62.75
X181.5Y-79.75
X190.5Y-28.75
X190.5Y-45.75
X190.5Y-62.75
X197.5Y-28.75
X197.5Y-45.75
X197.5Y-62.75
X208.5Y-28.75
X208.5Y-45.75
X208.5Y-62.75
X215.5Y-28.75
X215.5Y-45.75
X215.5Y-62.75
X226.5Y-28.75
X226.5Y-45.75
X226.5Y-62.75
X233.5Y-37.25
X233.5Y-54.25
X233.5Y-71.25
X244.5Y-37.25
X244.5Y-54.25
X244.5Y-71.25
T3
X43.25Y-45.75
X59.562Y-73.375
X77.0Y-21.844
X95.0Y-55.844
X133.25Y-22.375
X133.25Y-67.0
X144.5Y-86.656
X155.75Y-22.375
X155.75Y-67.0
X194.0Y-54.781
X212.0Y-21.844
X229.438Y-73.375
X245.75Y-45.75
T4
X50.0Y-31.35
X50.0Y-48.35
X50.0Y-65.35
X55.0Y-33.45
X55.0Y-50.45
X55.0Y-67.45
X68.0Y-22.85
X68.0Y-39.85
X68.0Y-56.85
X73.0Y-24.95
X73.0Y-41.95
X73.0Y-58.95
X86.0Y-22.85
X86.0Y-39.85
X86.0Y-56.85
X91.0Y-24.95
X91.0Y-41.95
X91.0Y-58.95
X104.0Y-22.85
X104.0Y-39.85
X104.0Y-56.85
X109.0Y-24.95
X109.0Y-41.95
X109.0Y-58.95
X113.0Y-73.85
X118.0Y-75.95
X122.0Y-22.85
X122.0Y-39.85
X122.0Y-56.85
X127.0Y-24.95
X127.0Y-41.95
X127.0Y-58.95
X131.0Y-73.85
X136.0Y-75.95
X158.0Y-73.85
X163.0Y-75.95
X167.0Y-22.85
X167.0Y-39.85
X167.0Y-56.85
X172.0Y-24.95
X172.0Y-41.95
X172.0Y-58.95
X176.0Y-73.85
X181.0Y-75.95
X185.0Y-22.85
X185.0Y-39.85
X185.0Y-56.85
X190.0Y-24.95
X190.0Y-41.95
X190.0Y-58.95
X203.0Y-22.85
X203.0Y-39.85
X203.0Y-56.85
X208.0Y-24.95
X208.0Y-41.95
X208.0Y-58.95
X221.0Y-22.85
X221.0Y-39.85
X221.0Y-56.85
X226.0Y-24.95
X226.0Y-41.95
X226.0Y-58.95
X239.0Y-31.35
X239.0Y-48.35
X239.0Y-65.35
X244.0Y-33.45
X244.0Y-50.45
X244.0Y-67.45
T5
X50.0Y-37.25
X50.0Y-54.25
X50.0Y-71.25
X68.0Y-28.75
X68.0Y-45.75
X68.0Y-62.75
X86.0Y-28.75
X86.0Y-45.75
X86.0Y-62.75
X104.0Y-28.75
X104.0Y-45.75
X104.0Y-62.75
X113.0Y-79.75
X122.0Y-28.75
X122.0Y-45.75
X122.0Y-62.75
X131.0Y-79.75
X158.0Y-79.75
X167.0Y-28.75
X167.0Y-45.75
X167.0Y-62.75
X176.0Y-79.75
X185.0Y-28.75
X185.0Y-45.75
X185.0Y-62.75
X203.0Y-28.75
X203.0Y-45.75
X203.0Y-62.75
X221.0Y-28.75
X221.0Y-45.75
X221.0Y-62.75
X239.0Y-37.25
X239.0Y-54.25
X239.0Y-71.25
M30
