M48
; DRILL file {KiCad 9.0.1} date 2025-04-30T11:23:36+0200
; FORMAT={-:-/ absolute / metric / decimal}
; #@! TF.CreationDate,2025-04-30T11:23:36+02:00
; #@! TF.GenerationSoftware,Kicad,Pcbnew,9.0.1
; #@! TF.FileFunction,Plated,1,2,PTH
FMAT,2
METRIC
; #@! TA.AperFunction,Plated,PTH,ViaDrill
T1C0.300
; #@! TA.AperFunction,Plated,PTH,ComponentDrill
T2C1.000
; #@! TA.AperFunction,Plated,PTH,ComponentDrill
T3C1.092
%
G90
G05
T1
X58.336Y-37.435
X65.188Y-24.5
X65.188Y-36.719
X65.188Y-37.99
X65.188Y-53.65
X65.188Y-54.85
X83.0Y-36.389
X83.0Y-37.99
X83.188Y-53.188
X83.188Y-54.85
X84.312Y-54.85
X101.0Y-35.988
X101.0Y-37.99
X101.188Y-52.848
X101.188Y-54.85
X109.625Y-69.656
X109.625Y-71.72
X111.312Y-71.781
X116.375Y-56.906
X118.625Y-52.056
X119.0Y-35.5
X119.0Y-37.99
X119.188Y-32.149
X119.188Y-33.349
X119.188Y-33.349
X121.438Y-81.875
X127.625Y-69.317
X127.625Y-71.72
X129.312Y-71.781
X136.625Y-55.244
X138.275Y-56.375
X139.475Y-56.375
X142.62Y-56.306
X143.938Y-56.306
X145.625Y-56.306
X145.625Y-57.506
X148.097Y-39.034
X148.131Y-41.756
X152.375Y-73.906
X154.625Y-58.962
X161.375Y-39.906
X163.625Y-25.274
X170.375Y-73.906
X172.625Y-69.587
X179.375Y-39.906
X179.375Y-56.906
X181.625Y-20.781
X181.625Y-31.026
X181.625Y-48.026
X197.375Y-39.906
X197.375Y-56.906
X199.625Y-20.781
X199.625Y-31.406
X199.625Y-48.406
X215.375Y-22.906
X215.375Y-39.906
X215.375Y-56.906
X217.625Y-31.869
X217.625Y-48.828
X233.375Y-31.406
X233.375Y-48.406
X233.375Y-65.406
X235.625Y-33.124
X235.625Y-49.931
T2
X140.68Y-59.2
X143.22Y-59.2
X145.76Y-59.2
X148.3Y-59.2
T3
X136.88Y-25.7
X136.88Y-28.24
X136.88Y-30.78
X136.88Y-33.32
X136.88Y-35.86
X136.88Y-38.4
X136.88Y-40.94
X136.88Y-43.48
X136.88Y-46.02
X136.88Y-48.56
X136.88Y-51.1
X136.88Y-53.64
X152.12Y-25.7
X152.12Y-28.24
X152.12Y-30.78
X152.12Y-33.32
X152.12Y-35.86
X152.12Y-38.4
X152.12Y-40.94
X152.12Y-43.48
X152.12Y-46.02
X152.12Y-48.56
X152.12Y-51.1
X152.12Y-53.64
M30
