%TF.GenerationSoftware,KiCad,Pcbnew,9.0.1*%
%TF.CreationDate,2025-04-30T11:23:34+02:00*%
%TF.ProjectId,otis34,6f746973-3334-42e6-9b69-6361645f7063,rev?*%
%TF.SameCoordinates,Original*%
%TF.FileFunction,Soldermask,Top*%
%TF.FilePolarity,Negative*%
%FSLAX46Y46*%
G04 Gerber Fmt 4.6, Leading zero omitted, Abs format (unit mm)*
G04 Created by KiCad (PCBNEW 9.0.1) date 2025-04-30 11:23:34*
%MOMM*%
%LPD*%
G01*
G04 APERTURE LIST*
%ADD10C,1.900000*%
%ADD11C,1.600000*%
%ADD12C,3.050000*%
%ADD13C,5.050000*%
%ADD14C,2.200000*%
%ADD15R,1.700000X1.700000*%
%ADD16O,1.700000X1.700000*%
%ADD17R,1.752600X1.752600*%
%ADD18C,1.752600*%
G04 APERTURE END LIST*
D10*
%TO.C,S20*%
X233500000Y-54250000D03*
D11*
X234000000Y-59400000D03*
D12*
X239000000Y-48350000D03*
D13*
X239000000Y-54250000D03*
D12*
X244000000Y-50450000D03*
D10*
X244500000Y-54250000D03*
%TD*%
%TO.C,S11*%
X44500000Y-54250000D03*
D11*
X45000000Y-59400000D03*
D12*
X50000000Y-48350000D03*
D13*
X50000000Y-54250000D03*
D12*
X55000000Y-50450000D03*
D10*
X55500000Y-54250000D03*
%TD*%
%TO.C,S23*%
X80500000Y-62750000D03*
D11*
X81000000Y-67900000D03*
D12*
X86000000Y-56850000D03*
D13*
X86000000Y-62750000D03*
D12*
X91000000Y-58950000D03*
D10*
X91500000Y-62750000D03*
%TD*%
%TO.C,S19*%
X215500000Y-45750000D03*
D11*
X216000000Y-50900000D03*
D12*
X221000000Y-39850000D03*
D13*
X221000000Y-45750000D03*
D12*
X226000000Y-41950000D03*
D10*
X226500000Y-45750000D03*
%TD*%
%TO.C,S28*%
X197500000Y-62750000D03*
D11*
X198000000Y-67900000D03*
D12*
X203000000Y-56850000D03*
D13*
X203000000Y-62750000D03*
D12*
X208000000Y-58950000D03*
D10*
X208500000Y-62750000D03*
%TD*%
%TO.C,S25*%
X116500000Y-62750000D03*
D11*
X117000000Y-67900000D03*
D12*
X122000000Y-56850000D03*
D13*
X122000000Y-62750000D03*
D12*
X127000000Y-58950000D03*
D10*
X127500000Y-62750000D03*
%TD*%
%TO.C,S32*%
X125500000Y-79750000D03*
D11*
X126000000Y-84900000D03*
D12*
X131000000Y-73850000D03*
D13*
X131000000Y-79750000D03*
D12*
X136000000Y-75950000D03*
D10*
X136500000Y-79750000D03*
%TD*%
%TO.C,S1*%
X44500000Y-37250000D03*
D11*
X45000000Y-42400000D03*
D12*
X50000000Y-31350000D03*
D13*
X50000000Y-37250000D03*
D12*
X55000000Y-33450000D03*
D10*
X55500000Y-37250000D03*
%TD*%
D14*
%TO.C,REF\u002A\u002A*%
X77000000Y-21843750D03*
%TD*%
D10*
%TO.C,S12*%
X62500000Y-45750000D03*
D11*
X63000000Y-50900000D03*
D12*
X68000000Y-39850000D03*
D13*
X68000000Y-45750000D03*
D12*
X73000000Y-41950000D03*
D10*
X73500000Y-45750000D03*
%TD*%
%TO.C,S16*%
X161500000Y-45750000D03*
D11*
X162000000Y-50900000D03*
D12*
X167000000Y-39850000D03*
D13*
X167000000Y-45750000D03*
D12*
X172000000Y-41950000D03*
D10*
X172500000Y-45750000D03*
%TD*%
%TO.C,S2*%
X62500000Y-28750000D03*
D11*
X63000000Y-33900000D03*
D12*
X68000000Y-22850000D03*
D13*
X68000000Y-28750000D03*
D12*
X73000000Y-24950000D03*
D10*
X73500000Y-28750000D03*
%TD*%
%TO.C,S21*%
X44500000Y-71250000D03*
D11*
X45000000Y-76400000D03*
D12*
X50000000Y-65350000D03*
D13*
X50000000Y-71250000D03*
D12*
X55000000Y-67450000D03*
D10*
X55500000Y-71250000D03*
%TD*%
D14*
%TO.C,REF\u002A\u002A*%
X212000000Y-21843750D03*
%TD*%
D10*
%TO.C,S22*%
X62500000Y-62750000D03*
D11*
X63000000Y-67900000D03*
D12*
X68000000Y-56850000D03*
D13*
X68000000Y-62750000D03*
D12*
X73000000Y-58950000D03*
D10*
X73500000Y-62750000D03*
%TD*%
%TO.C,S9*%
X215500000Y-28750000D03*
D11*
X216000000Y-33900000D03*
D12*
X221000000Y-22850000D03*
D13*
X221000000Y-28750000D03*
D12*
X226000000Y-24950000D03*
D10*
X226500000Y-28750000D03*
%TD*%
%TO.C,S34*%
X170500000Y-79750000D03*
D11*
X171000000Y-84900000D03*
D12*
X176000000Y-73850000D03*
D13*
X176000000Y-79750000D03*
D12*
X181000000Y-75950000D03*
D10*
X181500000Y-79750000D03*
%TD*%
D15*
%TO.C,J2*%
X148300000Y-59200000D03*
D16*
X145760000Y-59200000D03*
X143220000Y-59200000D03*
X140680000Y-59200000D03*
%TD*%
D10*
%TO.C,S29*%
X215500000Y-62750000D03*
D11*
X216000000Y-67900000D03*
D12*
X221000000Y-56850000D03*
D13*
X221000000Y-62750000D03*
D12*
X226000000Y-58950000D03*
D10*
X226500000Y-62750000D03*
%TD*%
D14*
%TO.C,REF\u002A\u002A*%
X155750000Y-22375000D03*
%TD*%
%TO.C,REF\u002A\u002A*%
X133250000Y-67000000D03*
%TD*%
D10*
%TO.C,S6*%
X161500000Y-28750000D03*
D11*
X162000000Y-33900000D03*
D12*
X167000000Y-22850000D03*
D13*
X167000000Y-28750000D03*
D12*
X172000000Y-24950000D03*
D10*
X172500000Y-28750000D03*
%TD*%
%TO.C,S13*%
X80500000Y-45750000D03*
D11*
X81000000Y-50900000D03*
D12*
X86000000Y-39850000D03*
D13*
X86000000Y-45750000D03*
D12*
X91000000Y-41950000D03*
D10*
X91500000Y-45750000D03*
%TD*%
%TO.C,S30*%
X233500000Y-71250000D03*
D11*
X234000000Y-76400000D03*
D12*
X239000000Y-65350000D03*
D13*
X239000000Y-71250000D03*
D12*
X244000000Y-67450000D03*
D10*
X244500000Y-71250000D03*
%TD*%
D14*
%TO.C,REF\u002A\u002A*%
X133250000Y-22375000D03*
%TD*%
D10*
%TO.C,S15*%
X116500000Y-45750000D03*
D11*
X117000000Y-50900000D03*
D12*
X122000000Y-39850000D03*
D13*
X122000000Y-45750000D03*
D12*
X127000000Y-41950000D03*
D10*
X127500000Y-45750000D03*
%TD*%
%TO.C,S14*%
X98500000Y-45750000D03*
D11*
X99000000Y-50900000D03*
D12*
X104000000Y-39850000D03*
D13*
X104000000Y-45750000D03*
D12*
X109000000Y-41950000D03*
D10*
X109500000Y-45750000D03*
%TD*%
D14*
%TO.C,REF\u002A\u002A*%
X59562500Y-73375000D03*
%TD*%
%TO.C,REF\u002A\u002A*%
X245750000Y-45750000D03*
%TD*%
D10*
%TO.C,S17*%
X179500000Y-45750000D03*
D11*
X180000000Y-50900000D03*
D12*
X185000000Y-39850000D03*
D13*
X185000000Y-45750000D03*
D12*
X190000000Y-41950000D03*
D10*
X190500000Y-45750000D03*
%TD*%
%TO.C,S31*%
X107500000Y-79750000D03*
D11*
X108000000Y-84900000D03*
D12*
X113000000Y-73850000D03*
D13*
X113000000Y-79750000D03*
D12*
X118000000Y-75950000D03*
D10*
X118500000Y-79750000D03*
%TD*%
D14*
%TO.C,REF\u002A\u002A*%
X43250000Y-45750000D03*
%TD*%
D10*
%TO.C,S26*%
X161500000Y-62750000D03*
D11*
X162000000Y-67900000D03*
D12*
X167000000Y-56850000D03*
D13*
X167000000Y-62750000D03*
D12*
X172000000Y-58950000D03*
D10*
X172500000Y-62750000D03*
%TD*%
%TO.C,S7*%
X179500000Y-28750000D03*
D11*
X180000000Y-33900000D03*
D12*
X185000000Y-22850000D03*
D13*
X185000000Y-28750000D03*
D12*
X190000000Y-24950000D03*
D10*
X190500000Y-28750000D03*
%TD*%
D14*
%TO.C,REF\u002A\u002A*%
X95000000Y-55843750D03*
%TD*%
D10*
%TO.C,S33*%
X152500000Y-79750000D03*
D11*
X153000000Y-84900000D03*
D12*
X158000000Y-73850000D03*
D13*
X158000000Y-79750000D03*
D12*
X163000000Y-75950000D03*
D10*
X163500000Y-79750000D03*
%TD*%
D14*
%TO.C,REF\u002A\u002A*%
X155750000Y-67000000D03*
%TD*%
D10*
%TO.C,S24*%
X98500000Y-62750000D03*
D11*
X99000000Y-67900000D03*
D12*
X104000000Y-56850000D03*
D13*
X104000000Y-62750000D03*
D12*
X109000000Y-58950000D03*
D10*
X109500000Y-62750000D03*
%TD*%
%TO.C,S27*%
X179500000Y-62750000D03*
D11*
X180000000Y-67900000D03*
D12*
X185000000Y-56850000D03*
D13*
X185000000Y-62750000D03*
D12*
X190000000Y-58950000D03*
D10*
X190500000Y-62750000D03*
%TD*%
%TO.C,S18*%
X197500000Y-45750000D03*
D11*
X198000000Y-50900000D03*
D12*
X203000000Y-39850000D03*
D13*
X203000000Y-45750000D03*
D12*
X208000000Y-41950000D03*
D10*
X208500000Y-45750000D03*
%TD*%
%TO.C,S3*%
X80500000Y-28750000D03*
D11*
X81000000Y-33900000D03*
D12*
X86000000Y-22850000D03*
D13*
X86000000Y-28750000D03*
D12*
X91000000Y-24950000D03*
D10*
X91500000Y-28750000D03*
%TD*%
D14*
%TO.C,REF\u002A\u002A*%
X194000000Y-54781250D03*
%TD*%
%TO.C,REF\u002A\u002A*%
X229437500Y-73375000D03*
%TD*%
D10*
%TO.C,S4*%
X98500000Y-28750000D03*
D11*
X99000000Y-33900000D03*
D12*
X104000000Y-22850000D03*
D13*
X104000000Y-28750000D03*
D12*
X109000000Y-24950000D03*
D10*
X109500000Y-28750000D03*
%TD*%
D14*
%TO.C,REF\u002A\u002A*%
X144500000Y-86656250D03*
%TD*%
D10*
%TO.C,S8*%
X197500000Y-28750000D03*
D11*
X198000000Y-33900000D03*
D12*
X203000000Y-22850000D03*
D13*
X203000000Y-28750000D03*
D12*
X208000000Y-24950000D03*
D10*
X208500000Y-28750000D03*
%TD*%
%TO.C,S5*%
X116500000Y-28750000D03*
D11*
X117000000Y-33900000D03*
D12*
X122000000Y-22850000D03*
D13*
X122000000Y-28750000D03*
D12*
X127000000Y-24950000D03*
D10*
X127500000Y-28750000D03*
%TD*%
%TO.C,S10*%
X233500000Y-37250000D03*
D11*
X234000000Y-42400000D03*
D12*
X239000000Y-31350000D03*
D13*
X239000000Y-37250000D03*
D12*
X244000000Y-33450000D03*
D10*
X244500000Y-37250000D03*
%TD*%
D17*
%TO.C,U1*%
X152120000Y-25700000D03*
D18*
X152120000Y-28240000D03*
X152120000Y-30780000D03*
X152120000Y-33320000D03*
X152120000Y-35860000D03*
X152120000Y-38400000D03*
X152120000Y-40940000D03*
X152120000Y-43480000D03*
X152120000Y-46020000D03*
X152120000Y-48560000D03*
X152120000Y-51100000D03*
X152120000Y-53640000D03*
X136880000Y-53640000D03*
X136880000Y-51100000D03*
X136880000Y-48560000D03*
X136880000Y-46020000D03*
X136880000Y-43480000D03*
X136880000Y-40940000D03*
X136880000Y-38400000D03*
X136880000Y-35860000D03*
X136880000Y-33320000D03*
X136880000Y-30780000D03*
X136880000Y-28240000D03*
X136880000Y-25700000D03*
%TD*%
M02*
