%TF.GenerationSoftware,KiCad,Pcbnew,9.0.1*%
%TF.CreationDate,2025-04-30T11:23:34+02:00*%
%TF.ProjectId,otis34,6f746973-3334-42e6-9b69-6361645f7063,rev?*%
%TF.SameCoordinates,Original*%
%TF.FileFunction,Soldermask,Bot*%
%TF.FilePolarity,Negative*%
%FSLAX46Y46*%
G04 Gerber Fmt 4.6, Leading zero omitted, Abs format (unit mm)*
G04 Created by KiCad (PCBNEW 9.0.1) date 2025-04-30 11:23:34*
%MOMM*%
%LPD*%
G01*
G04 APERTURE LIST*
G04 Aperture macros list*
%AMRoundRect*
0 Rectangle with rounded corners*
0 $1 Rounding radius*
0 $2 $3 $4 $5 $6 $7 $8 $9 X,Y pos of 4 corners*
0 Add a 4 corners polygon primitive as box body*
4,1,4,$2,$3,$4,$5,$6,$7,$8,$9,$2,$3,0*
0 Add four circle primitives for the rounded corners*
1,1,$1+$1,$2,$3*
1,1,$1+$1,$4,$5*
1,1,$1+$1,$6,$7*
1,1,$1+$1,$8,$9*
0 Add four rect primitives between the rounded corners*
20,1,$1+$1,$2,$3,$4,$5,0*
20,1,$1+$1,$4,$5,$6,$7,0*
20,1,$1+$1,$6,$7,$8,$9,0*
20,1,$1+$1,$8,$9,$2,$3,0*%
G04 Aperture macros list end*
%ADD10C,1.900000*%
%ADD11C,1.600000*%
%ADD12C,3.050000*%
%ADD13C,5.050000*%
%ADD14RoundRect,0.250000X-1.025000X-1.000000X1.025000X-1.000000X1.025000X1.000000X-1.025000X1.000000X0*%
%ADD15C,2.200000*%
%ADD16R,1.700000X1.700000*%
%ADD17O,1.700000X1.700000*%
%ADD18RoundRect,0.225000X0.225000X0.375000X-0.225000X0.375000X-0.225000X-0.375000X0.225000X-0.375000X0*%
%ADD19RoundRect,0.225000X-0.225000X-0.375000X0.225000X-0.375000X0.225000X0.375000X-0.225000X0.375000X0*%
%ADD20RoundRect,0.225000X0.375000X-0.225000X0.375000X0.225000X-0.375000X0.225000X-0.375000X-0.225000X0*%
%ADD21R,1.752600X1.752600*%
%ADD22C,1.752600*%
G04 APERTURE END LIST*
D10*
%TO.C,S20*%
X233500000Y-54250000D03*
D11*
X234000000Y-59400000D03*
D12*
X239000000Y-48350000D03*
D13*
X239000000Y-54250000D03*
D12*
X244000000Y-50450000D03*
D10*
X244500000Y-54250000D03*
D14*
X235500000Y-48250000D03*
X247500000Y-50450000D03*
%TD*%
D10*
%TO.C,S11*%
X44500000Y-54250000D03*
D11*
X45000000Y-59400000D03*
D12*
X50000000Y-48350000D03*
D13*
X50000000Y-54250000D03*
D12*
X55000000Y-50450000D03*
D10*
X55500000Y-54250000D03*
D14*
X46500000Y-48250000D03*
X58500000Y-50450000D03*
%TD*%
D10*
%TO.C,S23*%
X80500000Y-62750000D03*
D11*
X81000000Y-67900000D03*
D12*
X86000000Y-56850000D03*
D13*
X86000000Y-62750000D03*
D12*
X91000000Y-58950000D03*
D10*
X91500000Y-62750000D03*
D14*
X82500000Y-56750000D03*
X94500000Y-58950000D03*
%TD*%
D10*
%TO.C,S19*%
X215500000Y-45750000D03*
D11*
X216000000Y-50900000D03*
D12*
X221000000Y-39850000D03*
D13*
X221000000Y-45750000D03*
D12*
X226000000Y-41950000D03*
D10*
X226500000Y-45750000D03*
D14*
X217500000Y-39750000D03*
X229500000Y-41950000D03*
%TD*%
D10*
%TO.C,S28*%
X197500000Y-62750000D03*
D11*
X198000000Y-67900000D03*
D12*
X203000000Y-56850000D03*
D13*
X203000000Y-62750000D03*
D12*
X208000000Y-58950000D03*
D10*
X208500000Y-62750000D03*
D14*
X199500000Y-56750000D03*
X211500000Y-58950000D03*
%TD*%
D10*
%TO.C,S25*%
X116500000Y-62750000D03*
D11*
X117000000Y-67900000D03*
D12*
X122000000Y-56850000D03*
D13*
X122000000Y-62750000D03*
D12*
X127000000Y-58950000D03*
D10*
X127500000Y-62750000D03*
D14*
X118500000Y-56750000D03*
X130500000Y-58950000D03*
%TD*%
D10*
%TO.C,S32*%
X125500000Y-79750000D03*
D11*
X126000000Y-84900000D03*
D12*
X131000000Y-73850000D03*
D13*
X131000000Y-79750000D03*
D12*
X136000000Y-75950000D03*
D10*
X136500000Y-79750000D03*
D14*
X127500000Y-73750000D03*
X139500000Y-75950000D03*
%TD*%
D10*
%TO.C,S1*%
X44500000Y-37250000D03*
D11*
X45000000Y-42400000D03*
D12*
X50000000Y-31350000D03*
D13*
X50000000Y-37250000D03*
D12*
X55000000Y-33450000D03*
D10*
X55500000Y-37250000D03*
D14*
X46500000Y-31250000D03*
X58500000Y-33450000D03*
%TD*%
D15*
%TO.C,REF\u002A\u002A*%
X77000000Y-21843750D03*
%TD*%
D10*
%TO.C,S12*%
X62500000Y-45750000D03*
D11*
X63000000Y-50900000D03*
D12*
X68000000Y-39850000D03*
D13*
X68000000Y-45750000D03*
D12*
X73000000Y-41950000D03*
D10*
X73500000Y-45750000D03*
D14*
X64500000Y-39750000D03*
X76500000Y-41950000D03*
%TD*%
D10*
%TO.C,S16*%
X161500000Y-45750000D03*
D11*
X162000000Y-50900000D03*
D12*
X167000000Y-39850000D03*
D13*
X167000000Y-45750000D03*
D12*
X172000000Y-41950000D03*
D10*
X172500000Y-45750000D03*
D14*
X163500000Y-39750000D03*
X175500000Y-41950000D03*
%TD*%
D10*
%TO.C,S2*%
X62500000Y-28750000D03*
D11*
X63000000Y-33900000D03*
D12*
X68000000Y-22850000D03*
D13*
X68000000Y-28750000D03*
D12*
X73000000Y-24950000D03*
D10*
X73500000Y-28750000D03*
D14*
X64500000Y-22750000D03*
X76500000Y-24950000D03*
%TD*%
D10*
%TO.C,S21*%
X44500000Y-71250000D03*
D11*
X45000000Y-76400000D03*
D12*
X50000000Y-65350000D03*
D13*
X50000000Y-71250000D03*
D12*
X55000000Y-67450000D03*
D10*
X55500000Y-71250000D03*
D14*
X46500000Y-65250000D03*
X58500000Y-67450000D03*
%TD*%
D15*
%TO.C,REF\u002A\u002A*%
X212000000Y-21843750D03*
%TD*%
D10*
%TO.C,S22*%
X62500000Y-62750000D03*
D11*
X63000000Y-67900000D03*
D12*
X68000000Y-56850000D03*
D13*
X68000000Y-62750000D03*
D12*
X73000000Y-58950000D03*
D10*
X73500000Y-62750000D03*
D14*
X64500000Y-56750000D03*
X76500000Y-58950000D03*
%TD*%
D10*
%TO.C,S9*%
X215500000Y-28750000D03*
D11*
X216000000Y-33900000D03*
D12*
X221000000Y-22850000D03*
D13*
X221000000Y-28750000D03*
D12*
X226000000Y-24950000D03*
D10*
X226500000Y-28750000D03*
D14*
X217500000Y-22750000D03*
X229500000Y-24950000D03*
%TD*%
D10*
%TO.C,S34*%
X170500000Y-79750000D03*
D11*
X171000000Y-84900000D03*
D12*
X176000000Y-73850000D03*
D13*
X176000000Y-79750000D03*
D12*
X181000000Y-75950000D03*
D10*
X181500000Y-79750000D03*
D14*
X172500000Y-73750000D03*
X184500000Y-75950000D03*
%TD*%
D16*
%TO.C,J2*%
X148300000Y-59200000D03*
D17*
X145760000Y-59200000D03*
X143220000Y-59200000D03*
X140680000Y-59200000D03*
%TD*%
D10*
%TO.C,S29*%
X215500000Y-62750000D03*
D11*
X216000000Y-67900000D03*
D12*
X221000000Y-56850000D03*
D13*
X221000000Y-62750000D03*
D12*
X226000000Y-58950000D03*
D10*
X226500000Y-62750000D03*
D14*
X217500000Y-56750000D03*
X229500000Y-58950000D03*
%TD*%
D15*
%TO.C,REF\u002A\u002A*%
X155750000Y-22375000D03*
%TD*%
%TO.C,REF\u002A\u002A*%
X133250000Y-67000000D03*
%TD*%
D10*
%TO.C,S6*%
X161500000Y-28750000D03*
D11*
X162000000Y-33900000D03*
D12*
X167000000Y-22850000D03*
D13*
X167000000Y-28750000D03*
D12*
X172000000Y-24950000D03*
D10*
X172500000Y-28750000D03*
D14*
X163500000Y-22750000D03*
X175500000Y-24950000D03*
%TD*%
D10*
%TO.C,S13*%
X80500000Y-45750000D03*
D11*
X81000000Y-50900000D03*
D12*
X86000000Y-39850000D03*
D13*
X86000000Y-45750000D03*
D12*
X91000000Y-41950000D03*
D10*
X91500000Y-45750000D03*
D14*
X82500000Y-39750000D03*
X94500000Y-41950000D03*
%TD*%
D10*
%TO.C,S30*%
X233500000Y-71250000D03*
D11*
X234000000Y-76400000D03*
D12*
X239000000Y-65350000D03*
D13*
X239000000Y-71250000D03*
D12*
X244000000Y-67450000D03*
D10*
X244500000Y-71250000D03*
D14*
X235500000Y-65250000D03*
X247500000Y-67450000D03*
%TD*%
D15*
%TO.C,REF\u002A\u002A*%
X133250000Y-22375000D03*
%TD*%
D10*
%TO.C,S15*%
X116500000Y-45750000D03*
D11*
X117000000Y-50900000D03*
D12*
X122000000Y-39850000D03*
D13*
X122000000Y-45750000D03*
D12*
X127000000Y-41950000D03*
D10*
X127500000Y-45750000D03*
D14*
X118500000Y-39750000D03*
X130500000Y-41950000D03*
%TD*%
D10*
%TO.C,S14*%
X98500000Y-45750000D03*
D11*
X99000000Y-50900000D03*
D12*
X104000000Y-39850000D03*
D13*
X104000000Y-45750000D03*
D12*
X109000000Y-41950000D03*
D10*
X109500000Y-45750000D03*
D14*
X100500000Y-39750000D03*
X112500000Y-41950000D03*
%TD*%
D15*
%TO.C,REF\u002A\u002A*%
X59562500Y-73375000D03*
%TD*%
%TO.C,REF\u002A\u002A*%
X245750000Y-45750000D03*
%TD*%
D10*
%TO.C,S17*%
X179500000Y-45750000D03*
D11*
X180000000Y-50900000D03*
D12*
X185000000Y-39850000D03*
D13*
X185000000Y-45750000D03*
D12*
X190000000Y-41950000D03*
D10*
X190500000Y-45750000D03*
D14*
X181500000Y-39750000D03*
X193500000Y-41950000D03*
%TD*%
D10*
%TO.C,S31*%
X107500000Y-79750000D03*
D11*
X108000000Y-84900000D03*
D12*
X113000000Y-73850000D03*
D13*
X113000000Y-79750000D03*
D12*
X118000000Y-75950000D03*
D10*
X118500000Y-79750000D03*
D14*
X109500000Y-73750000D03*
X121500000Y-75950000D03*
%TD*%
D15*
%TO.C,REF\u002A\u002A*%
X43250000Y-45750000D03*
%TD*%
D10*
%TO.C,S26*%
X161500000Y-62750000D03*
D11*
X162000000Y-67900000D03*
D12*
X167000000Y-56850000D03*
D13*
X167000000Y-62750000D03*
D12*
X172000000Y-58950000D03*
D10*
X172500000Y-62750000D03*
D14*
X163500000Y-56750000D03*
X175500000Y-58950000D03*
%TD*%
D10*
%TO.C,S7*%
X179500000Y-28750000D03*
D11*
X180000000Y-33900000D03*
D12*
X185000000Y-22850000D03*
D13*
X185000000Y-28750000D03*
D12*
X190000000Y-24950000D03*
D10*
X190500000Y-28750000D03*
D14*
X181500000Y-22750000D03*
X193500000Y-24950000D03*
%TD*%
D15*
%TO.C,REF\u002A\u002A*%
X95000000Y-55843750D03*
%TD*%
D10*
%TO.C,S33*%
X152500000Y-79750000D03*
D11*
X153000000Y-84900000D03*
D12*
X158000000Y-73850000D03*
D13*
X158000000Y-79750000D03*
D12*
X163000000Y-75950000D03*
D10*
X163500000Y-79750000D03*
D14*
X154500000Y-73750000D03*
X166500000Y-75950000D03*
%TD*%
D15*
%TO.C,REF\u002A\u002A*%
X155750000Y-67000000D03*
%TD*%
D10*
%TO.C,S24*%
X98500000Y-62750000D03*
D11*
X99000000Y-67900000D03*
D12*
X104000000Y-56850000D03*
D13*
X104000000Y-62750000D03*
D12*
X109000000Y-58950000D03*
D10*
X109500000Y-62750000D03*
D14*
X100500000Y-56750000D03*
X112500000Y-58950000D03*
%TD*%
D10*
%TO.C,S27*%
X179500000Y-62750000D03*
D11*
X180000000Y-67900000D03*
D12*
X185000000Y-56850000D03*
D13*
X185000000Y-62750000D03*
D12*
X190000000Y-58950000D03*
D10*
X190500000Y-62750000D03*
D14*
X181500000Y-56750000D03*
X193500000Y-58950000D03*
%TD*%
D10*
%TO.C,S18*%
X197500000Y-45750000D03*
D11*
X198000000Y-50900000D03*
D12*
X203000000Y-39850000D03*
D13*
X203000000Y-45750000D03*
D12*
X208000000Y-41950000D03*
D10*
X208500000Y-45750000D03*
D14*
X199500000Y-39750000D03*
X211500000Y-41950000D03*
%TD*%
D10*
%TO.C,S3*%
X80500000Y-28750000D03*
D11*
X81000000Y-33900000D03*
D12*
X86000000Y-22850000D03*
D13*
X86000000Y-28750000D03*
D12*
X91000000Y-24950000D03*
D10*
X91500000Y-28750000D03*
D14*
X82500000Y-22750000D03*
X94500000Y-24950000D03*
%TD*%
D15*
%TO.C,REF\u002A\u002A*%
X194000000Y-54781250D03*
%TD*%
%TO.C,REF\u002A\u002A*%
X229437500Y-73375000D03*
%TD*%
D10*
%TO.C,S4*%
X98500000Y-28750000D03*
D11*
X99000000Y-33900000D03*
D12*
X104000000Y-22850000D03*
D13*
X104000000Y-28750000D03*
D12*
X109000000Y-24950000D03*
D10*
X109500000Y-28750000D03*
D14*
X100500000Y-22750000D03*
X112500000Y-24950000D03*
%TD*%
D15*
%TO.C,REF\u002A\u002A*%
X144500000Y-86656250D03*
%TD*%
D10*
%TO.C,S8*%
X197500000Y-28750000D03*
D11*
X198000000Y-33900000D03*
D12*
X203000000Y-22850000D03*
D13*
X203000000Y-28750000D03*
D12*
X208000000Y-24950000D03*
D10*
X208500000Y-28750000D03*
D14*
X199500000Y-22750000D03*
X211500000Y-24950000D03*
%TD*%
D10*
%TO.C,S5*%
X116500000Y-28750000D03*
D11*
X117000000Y-33900000D03*
D12*
X122000000Y-22850000D03*
D13*
X122000000Y-28750000D03*
D12*
X127000000Y-24950000D03*
D10*
X127500000Y-28750000D03*
D14*
X118500000Y-22750000D03*
X130500000Y-24950000D03*
%TD*%
D10*
%TO.C,S10*%
X233500000Y-37250000D03*
D11*
X234000000Y-42400000D03*
D12*
X239000000Y-31350000D03*
D13*
X239000000Y-37250000D03*
D12*
X244000000Y-33450000D03*
D10*
X244500000Y-37250000D03*
D14*
X235500000Y-31250000D03*
X247500000Y-33450000D03*
%TD*%
D18*
%TO.C,D3*%
X133812500Y-33531250D03*
X130512500Y-33531250D03*
%TD*%
D19*
%TO.C,D29*%
X146187500Y-70187500D03*
X149487500Y-70187500D03*
%TD*%
D18*
%TO.C,D1*%
X133812500Y-38843750D03*
X130512500Y-38843750D03*
%TD*%
%TO.C,D25*%
X142812500Y-62218750D03*
X139512500Y-62218750D03*
%TD*%
%TO.C,D11*%
X133812500Y-55843750D03*
X130512500Y-55843750D03*
%TD*%
D19*
%TO.C,D20*%
X155225000Y-55843750D03*
X158525000Y-55843750D03*
%TD*%
D18*
%TO.C,D23*%
X142812500Y-67531250D03*
X139512500Y-67531250D03*
%TD*%
D20*
%TO.C,D31*%
X121437500Y-83525000D03*
X121437500Y-80225000D03*
%TD*%
%TO.C,D32*%
X139437500Y-83525000D03*
X139437500Y-80225000D03*
%TD*%
D19*
%TO.C,D17*%
X155225000Y-47875000D03*
X158525000Y-47875000D03*
%TD*%
%TO.C,D8*%
X155300000Y-33531250D03*
X158600000Y-33531250D03*
%TD*%
D18*
%TO.C,D22*%
X142812500Y-70187500D03*
X139512500Y-70187500D03*
%TD*%
D20*
%TO.C,D34*%
X167000000Y-83525000D03*
X167000000Y-80225000D03*
%TD*%
D18*
%TO.C,D4*%
X133812500Y-30875000D03*
X130512500Y-30875000D03*
%TD*%
%TO.C,D2*%
X133812500Y-36187500D03*
X130512500Y-36187500D03*
%TD*%
%TO.C,D5*%
X133812500Y-28218750D03*
X130512500Y-28218750D03*
%TD*%
D19*
%TO.C,D10*%
X155300000Y-38843750D03*
X158600000Y-38843750D03*
%TD*%
D18*
%TO.C,D13*%
X133812500Y-50531250D03*
X130512500Y-50531250D03*
%TD*%
D20*
%TO.C,D33*%
X149562500Y-83525000D03*
X149562500Y-80225000D03*
%TD*%
D19*
%TO.C,D19*%
X155225000Y-53187500D03*
X158525000Y-53187500D03*
%TD*%
D21*
%TO.C,U1*%
X152120000Y-25700000D03*
D22*
X152120000Y-28240000D03*
X152120000Y-30780000D03*
X152120000Y-33320000D03*
X152120000Y-35860000D03*
X152120000Y-38400000D03*
X152120000Y-40940000D03*
X152120000Y-43480000D03*
X152120000Y-46020000D03*
X152120000Y-48560000D03*
X152120000Y-51100000D03*
X152120000Y-53640000D03*
X136880000Y-53640000D03*
X136880000Y-51100000D03*
X136880000Y-48560000D03*
X136880000Y-46020000D03*
X136880000Y-43480000D03*
X136880000Y-40940000D03*
X136880000Y-38400000D03*
X136880000Y-35860000D03*
X136880000Y-33320000D03*
X136880000Y-30780000D03*
X136880000Y-28240000D03*
X136880000Y-25700000D03*
%TD*%
D19*
%TO.C,D7*%
X155300000Y-30875000D03*
X158600000Y-30875000D03*
%TD*%
%TO.C,D26*%
X146187500Y-62218750D03*
X149487500Y-62218750D03*
%TD*%
D18*
%TO.C,D12*%
X133812500Y-53187500D03*
X130512500Y-53187500D03*
%TD*%
%TO.C,D24*%
X142812500Y-64875000D03*
X139512500Y-64875000D03*
%TD*%
%TO.C,D14*%
X133812500Y-47875000D03*
X130512500Y-47875000D03*
%TD*%
%TO.C,D15*%
X133812500Y-45218750D03*
X130512500Y-45218750D03*
%TD*%
D19*
%TO.C,D30*%
X146187500Y-72843750D03*
X149487500Y-72843750D03*
%TD*%
%TO.C,D6*%
X155300000Y-28218750D03*
X158600000Y-28218750D03*
%TD*%
%TO.C,D18*%
X155225000Y-50531250D03*
X158525000Y-50531250D03*
%TD*%
%TO.C,D28*%
X146187500Y-67531250D03*
X149487500Y-67531250D03*
%TD*%
%TO.C,D27*%
X146187500Y-64875000D03*
X149487500Y-64875000D03*
%TD*%
%TO.C,D16*%
X155225000Y-45218750D03*
X158525000Y-45218750D03*
%TD*%
%TO.C,D9*%
X155300000Y-36187500D03*
X158600000Y-36187500D03*
%TD*%
D18*
%TO.C,D21*%
X142812500Y-72843750D03*
X139512500Y-72843750D03*
%TD*%
M02*
